# xmcd CD database file
#
# Track frame offsets:
#	150
#	12590
#	25674
#	37665
#	51335
#	64932
#	79287
#	91719
#	103210
#	115409
#	127652
#	138791
#	150558
#	164371
#	176174
#	189386
#	203051
#	215551
#	225874
#	237256
#	247817
#	259917
#	271861
#	283990
#
# Disc length: 3967 seconds
#
# Revision: 0
# Processed by: cddbd v1.5.2PL0 Copyright (c) Steve Scherf et al.
# Submitted via: CDex 1.70beta2
#
DISCID=430f7d18
DTITLE=Duke Ellington - Jazz Roads CD119 - Swing - Duke Ellington Small Groups Vol.3 (1938)
DYEAR=2006
DGENRE=Jazz
TTITLE0=Johnny Hodges And His Orchestra - A Blues Serenade
TTITLE1=Johnny Hodges And His Orchestra - Love In Swingtime
TTITLE2=Johnny Hodges And His Orchestra - Swingin' In The Dell
TTITLE3=Johnny Hodges And His Orchestra - Jitterbug's Lullaby
TTITLE4=Cootie Williams And His Rug Cutters - Chasin‘ Chippies
TTITLE5=Cootie Williams And His Rug Cutters - Blue Is The Evening
TTITLE6=Cootie Williams And His Rug Cutters - Sharpie
TTITLE7=Cootie Williams And His Rug Cutters - Swing Pan Alley
TTITLE8=Johnny Hodges And His Orchestra - Prelude To A Kiss
TTITLE9=Johnny Hodges And His Orchestra - There's Something About An Old Love
TTITLE10=Johnny Hodges And His Orchestra - The Jeep Is Jumpin'
TTITLE11=Johnny Hodges And His Orchestra - Krum Elbow Blues
TTITLE12=Johnny Hodges And His Orchestra - I'm In Another World
TTITLE13=Johnny Hodges And His Orchestra - Hodge Podge
TTITLE14=Johnny Hodges And His Orchestra - Dancing On The Stars
TTITLE15=Johnny Hodges And His Orchestra - Wanderlust
TTITLE16=Cootie Williams And His Rug Cutters - Delta Mood
TTITLE17=Cootie Williams And His Rug Cutters - The Boys From Harlem
TTITLE18=Cootie Williams And His Rug Cutters - Mobile Blues
TTITLE19=Cootie Williams And His Rug Cutters - Gal-Avantin'
TTITLE20=Johnny Hodges And His Orchestra - Like A Ship In The Night
TTITLE21=Johnny Hodges And His Orchestra - Mississippi Dream Boat
TTITLE22=Johnny Hodges And His Orchestra - Swingin' On The Campus
TTITLE23=Johnny Hodges And His Orchestra - Dooji Wooji
EXTD=YEAR: 2006
EXTT0=
EXTT1=
EXTT2=
EXTT3=
EXTT4=
EXTT5=
EXTT6=
EXTT7=
EXTT8=
EXTT9=
EXTT10=
EXTT11=
EXTT12=
EXTT13=
EXTT14=
EXTT15=
EXTT16=
EXTT17=
EXTT18=
EXTT19=
EXTT20=
EXTT21=
EXTT22=
EXTT23=
PLAYORDER=
